<svg xmlns="http://www.w3.org/2000/svg" viewBox="2888.64 284.49 204.14 203.85"><path fill="#ee565a" d="M3084.4,411.3c-4.5-1.4-4.6-1.1-9.2-2.5s-4.5-1.6-9-3-4.2-2.4-8.8-3.8-4.5-1.4-9.1-2.8-4.5-1.5-9-2.9-4.6-1.3-9.1-2.7-4.8-.6-9.3-2-4.1-2.8-8.7-4.2c-2.4-.8-2.9-2.9-.6-4.1,4.2-2.2,3.9-2.8,8.1-5s4.6-1.5,8.8-3.7,3.7-3.1,7.9-5.3,4.3-2,8.5-4.3,3.9-2.8,8.1-5.1,4.2-2.2,8.4-4.4,4.4-1.9,8.6-4.2,4.2-2.3,8.4-4.5c1.4-.7,1.7-1.7,1-3.1-1.3-2.5-1.1-2.5-2.4-5-.7-1.4-2-1.7-3.4-1-4.2,2.2-4.4,1.9-8.5,4.1s-4,2.5-8.2,4.8-4.2,2.3-8.4,4.5-4.7,1.3-8.9,3.5-4.1,2.5-8.3,4.7-4.1,2.5-8.3,4.7-4,2.5-8.2,4.7-4.1,2.5-8.3,4.7c-2.3,1.2-4.4-1.3-3.7-3.8,1.4-4.5.5-4.8,1.9-9.4s.8-4.7,2.2-9.3c1.4-4.5,2-4.4,3.4-8.9s.8-4.7,2.2-9.3,2-4.4,3.4-8.9,2.2-4.3,3.6-8.8,0-5,1.4-9.5,2.8-4.1,4.2-8.7c.5-1.5-1-3.1-2.5-3.6-2.7-.8-2.4-1.7-5-2.6-1.5-.5-4.3.8-4.7,2.4-1.4,4.5-.5,4.8-1.9,9.4-1.4,4.5-2.1,4.3-3.5,8.8s0,4.9-1.5,9.5-2,4.4-3.4,8.9-1.5,4.5-2.9,9-2,4.4-3.4,8.9-1.6,4.5-3,9,.2,5-1.2,9.6c-.8,2.4-5.7,2.9-6.9.6-2.2-4.2-1.4-4.6-3.6-8.8s-2-4.3-4.3-8.5-2-4.3-4.2-8.5-2.2-4.2-4.4-8.4-2-4.3-4.2-8.5-3.3-3.7-5.5-7.9-1.6-4.5-3.8-8.7-2-4.3-4.2-8.5c-.7-1.4-3-1.7-4.4-.9-2.5,1.3-2.4,1.4-4.9,2.7-1.4.7-2,2.4-1.3,3.8,2.2,4.2,2.1,4.3,4.3,8.5s2,4.3,4.2,8.5,2.2,4.2,4.4,8.4,1.8,4.4,4,8.6,2.4,4.1,4.6,8.3,3.1,3.7,5.3,7.9c2.2,4.2,2.4,4.1,4.6,8.3s1.4,4.6,3.6,8.8c1.2,2.3-.3,3.9-2.7,3.1-4.5-1.4-5,.2-9.6-1.2s-4.5-1.6-9-3-4.3-2.3-8.8-3.7-4.4-1.7-9-3.1-4.6-1.1-9.2-2.5-4.4-2-8.9-3.4-5,.1-9.6-1.3-4.4-1.8-9-3.2c-1.5-.5-3,0-3.5,1.6-.8,2.7-.4,2.8-1.3,5.4-.5,1.5.2,2.2,1.7,2.7,4.5,1.4,4.2,2.3,8.8,3.7s4.5,1.7,9,3.1,4.4,1.8,8.9,3.2,5.1-.3,9.6,1.1,4.1,2.8,8.6,4.2,4.5,1.6,9,3,4.6,1.3,9.1,2.7,4.5,1.5,9.1,2.9c2.4.8,2.9,3.3.6,4.5-4.2,2.2-4.3,2-8.5,4.2s-4,2.6-8.2,4.9-4,2.7-8.2,4.9-4.6,1.4-8.8,3.6-3.7,3.1-7.9,5.3c-4.2,2.2-4.8,1-9,3.2s-3.9,2.8-8.1,5-4.1,2.4-8.3,4.6c-1.4.7-1.6,2.2-.8,3.6,1.3,2.5.4,3,1.6,5.4.7,1.4,3.4,2.4,4.8,1.6,4.2-2.2,3.7-3.2,7.9-5.4s4.5-1.7,8.7-3.9,3.6-3.3,7.8-5.5,5-.8,9.2-3,4.1-2.3,8.3-4.6,3.7-3.1,7.9-5.3,4.3-2.1,8.5-4.3,4-2.6,8.2-4.8c2.3-1.2,5.7,1.7,4.9,4.2-1.4,4.5-2.3,4.3-3.7,8.8s-.7,4.8-2.1,9.3c-1.4,4.5-1.6,4.5-3,9s-2.2,4.3-3.6,8.8-.7,4.7-2.1,9.3-1.5,4.5-2.9,9c-1.4,4.5-1.2,4.6-2.6,9.2s-1.8,4.4-3.2,9c-.5,1.5.7,3.1,2.2,3.5,2.7.8,2.9.1,5.5.9,1.5.5,2.5.3,3-1.2,1.4-4.5,2.3-4.3,3.7-8.8s1.4-4.5,2.8-9.1,1.2-4.6,2.6-9.1.3-4.9,1.7-9.4,1.3-4.6,2.7-9.1c1.4-4.5,2-4.4,3.4-8.9s2-4.4,3.4-8.9,1.8-4.4,3.2-9c.8-2.4,4-3.3,5.2-1,2.2,4.2,1.8,4.4,4,8.6s2.2,4.2,4.4,8.4,2.1,4.3,4.3,8.5,2.3,4.2,4.5,8.4,1.4,4.6,3.6,8.8,3.5,3.5,5.7,7.7c2.2,4.2,2.6,4,4.8,8.2s2,4.3,4.2,8.5c.7,1.4,1.9,2.3,3.3,1.6,2.5-1.3,2.7-.8,5.2-2.1,1.4-.7,1.4-2.9.7-4.3-2.2-4.2-1.8-4.4-4.1-8.6s-1.5-4.6-3.8-8.7-3.7-3.4-5.9-7.6-1.4-4.6-3.6-8.8c-2.2-4.2-2.3-4.2-4.5-8.4-2.2-4.2-1.9-4.4-4.1-8.6s-3.3-3.6-5.5-7.8-1.6-4.6-3.8-8.8c-1.2-2.3.8-4.5,3.3-3.7,4.5,1.4,4.6,1.2,9.1,2.6s4.8.5,9.3,1.9,4.3,2.3,8.8,3.7,4.4,1.9,8.9,3.3,4.8.7,9.3,2.1,4.5,1.6,9,3,4.4,2,8.9,3.4,4.7.9,9.2,2.3c1.5.5,3.2-.5,3.7-2,.8-2.7,1.6-2.4,2.4-5.1.5-1.5-1.4-2.9-2.9-3.4Z"/></svg>